# xmcd
#
# Track frame offsets: 
#        150
#        15566
#        29640
#        58847
#        76144
#        88396
#        111978
#        126699
#        146106
#
# Disc length: 2104 seconds
#
# Revision: 0
# Processed by: cddbd v1.5.2PL0 Copyright (c) Steve Scherf et al.
# Submitted via: ExactAudioCopy v1.3
#
DISCID=86083609
DTITLE=Victor Lawson And Boogie Chillen - The Originals
DYEAR=2019
DGENRE=Electric Blues
TTITLE0=Down to the River
TTITLE1=One More Shot
TTITLE2=Suitcase Full of Blues
TTITLE3=Hammer
TTITLE4=Back to Alabama
TTITLE5=Pink Thang
TTITLE6=You Took Me Down
TTITLE7=Done Got My Gun
TTITLE8=Move on
EXTD=
EXTT0=
EXTT1=
EXTT2=
EXTT3=
EXTT4=
EXTT5=
EXTT6=
EXTT7=
EXTT8=
PLAYORDER=
